<svg width="56" height="29" viewBox="0 0 56 29" fill="none" xmlns="http://www.w3.org/2000/svg">
<g clip-path="url(#clip0_1182_2003)">
<path fill-rule="evenodd" clip-rule="evenodd" d="M44.2656 1.22658C44.2656 0.793752 44.6034 0.499756 45.0425 0.499756C45.4816 0.499756 45.8194 0.793752 45.8194 1.22658C45.8194 1.65941 45.4732 1.9534 45.0425 1.9534C44.6118 1.9534 44.2656 1.65941 44.2656 1.22658ZM44.5021 1.22658C44.5021 1.52057 44.7301 1.74107 45.0425 1.74107C45.3549 1.74107 45.5829 1.52057 45.5829 1.22658C45.5829 0.932583 45.3549 0.70392 45.0425 0.70392C44.7301 0.70392 44.5021 0.932583 44.5021 1.22658ZM13.4461 14.9465H17.2376L22.8277 0.540698H19.3064L16.7985 7.00043L17.2291 0.540698H13.4883L7.89825 14.9465H11.4195L13.8768 8.57658L13.4461 14.9465ZM8.88672 18.213C8.88672 17.7801 9.22449 17.4861 9.66359 17.4861C10.1027 17.4861 10.4405 17.7801 10.4405 18.213C10.4405 18.6458 10.0942 18.9398 9.66359 18.9398C9.23293 18.9398 8.88672 18.6458 8.88672 18.213ZM9.12316 18.213C9.12316 18.507 9.35115 18.7275 9.66359 18.7275C9.97603 18.7275 10.204 18.507 10.204 18.213C10.204 17.919 9.97603 17.6903 9.66359 17.6903C9.35115 17.6903 9.12316 17.919 9.12316 18.213ZM17.6875 14.9465L23.2776 0.54071H26.7988L21.2087 14.9465H17.6875ZM2.03483 26.4203C-2.06908 22.9985 2.57526 15.567 7.48981 9.98107C3.2508 18.1884 9.1111 21.2264 14.2621 19.8299C14.2621 19.8299 23.3626 17.4431 32.9598 14.9268L27.882 14.9383L27.7216 8.91959L25.3572 14.9383H21.8359L27.3754 0.54071H30.9388L29.2331 4.86081L32.9232 0.54071H36.5796H36.6134H43.6643L42.7186 2.94167H39.1551L37.9982 5.97146H41.3844L40.3457 8.65826H36.9596L35.6085 12.1454H39.7124L39.2955 13.2658C47.6582 11.0736 54.9104 9.17346 54.9887 9.15625C55.4447 9.05008 55.5122 9.27058 55.1491 9.44208C55.1491 9.44208 17.7411 25.1545 14.355 26.4612L14.2889 26.4868C10.9045 27.8012 5.97788 29.7144 2.03483 26.4203ZM9.79575 18.262C9.90562 18.2538 9.99013 18.2048 9.99013 18.0579C9.99013 17.87 9.86336 17.821 9.65208 17.821H9.34783V18.605H9.55066V18.2702H9.58446L9.7704 18.605H10.007L9.79575 18.262ZM9.66053 18.1395H9.54221V17.9599H9.64362C9.70278 17.9599 9.7704 17.968 9.7704 18.0415C9.7704 18.1232 9.73659 18.1395 9.66053 18.1395ZM45.1784 1.27556C45.2883 1.26739 45.3728 1.21839 45.3728 1.07139C45.3728 0.883564 45.246 0.834564 45.0347 0.834564H44.7305V1.61855H44.9333V1.28372H44.9671L45.1531 1.61855H45.3897L45.1784 1.27556ZM45.0432 1.15306H44.9249V0.973396H45.0263C45.0854 0.973396 45.1531 0.981562 45.1531 1.05506C45.1531 1.13673 45.1193 1.15306 45.0432 1.15306ZM31.1499 6.47779L31.3779 13.9828L36.4698 0.82654L31.1499 6.47779Z" fill="#949494"/>
</g>
<defs>
<clipPath id="clip0_1182_2003">
<rect width="54.9215" height="27.75" fill="white" transform="translate(0.457031 0.499756)"/>
</clipPath>
</defs>
</svg>
