<svg width="60" height="15" viewBox="0 0 60 15" fill="none" xmlns="http://www.w3.org/2000/svg">
<g clip-path="url(#clip0_1182_2028)">
<path d="M0.296875 0.431641H5.96945L10.7304 8.66618C10.7304 8.66618 10.7304 2.70324 10.7304 2.23859C10.7304 1.51581 9.83137 0.573615 9.51482 0.431641C9.89468 0.431641 13.2121 0.431641 13.44 0.431641C13.1995 0.496175 12.4271 1.45128 12.4271 2.23859C12.4271 2.62579 12.4271 11.2733 12.4271 11.6864C12.4271 12.2672 13.2501 13.0674 13.6426 13.3772H8.17264L3.33576 5.1039C3.33576 5.1039 3.33576 11.2733 3.33576 11.6089C3.33576 12.2543 3.9562 12.8738 4.60196 13.403H0.423495C1.01861 13.1448 1.5884 12.3317 1.63905 11.6864C1.6897 11.041 1.63905 2.71614 1.63905 2.35475C1.63905 1.56744 0.891989 0.922099 0.296875 0.431641Z" fill="#949494"/>
<path d="M52.1846 13.3772H59.7312C59.3133 13.2739 58.8448 12.7705 58.5916 12.0994C58.3384 11.4282 54.3372 0.431641 54.3372 0.431641H51.7134C50.6354 0.665555 49.1592 0.23976 48.2282 0.903169C48.2256 0.927262 48.8461 2.37024 48.8418 2.39347C48.7169 3.16788 46.4715 11.4575 46.3348 11.8671C46.1448 12.435 45.1699 13.0674 44.7773 13.403H48.8418C48.4367 12.9383 48.1074 12.4866 48.1834 11.9703C48.2594 11.454 48.4873 10.4215 48.4873 10.4215H52.6911C52.881 10.9378 53.0228 11.4016 53.0963 11.8412C53.1849 12.3704 52.6531 12.9641 52.1846 13.3772ZM48.8672 8.76943L50.2853 4.04554L52.1593 8.76943H48.8672ZM48.2282 0.903169C48.4367 0.746567 51.5049 0.589104 51.7134 0.431641H47.7529C47.8627 0.534895 48.0441 0.697521 48.2282 0.903169Z" fill="#949494"/>
<path d="M19.3631 11.9703C19.4391 11.454 19.667 10.4215 19.667 10.4215H23.8708C24.0607 10.9378 24.2025 11.4016 24.276 11.8412C24.3646 12.3704 23.8328 12.9641 23.3643 13.3772H30.0085C30.1469 13.2825 30.2845 13.1879 30.4221 13.0941C30.1646 12.8617 29.9274 12.5133 29.7713 12.0994C29.518 11.4282 25.5168 0.431641 25.5168 0.431641H18.9326C19.2492 0.728497 20.1608 1.52872 20.0215 2.39347C19.8974 3.16788 17.6512 11.4575 17.5145 11.8671C17.3245 12.435 16.3496 13.0674 15.957 13.403H20.0215C19.6164 12.9383 19.2871 12.4866 19.3631 11.9703ZM21.465 4.04554L23.339 8.76943H20.0469L21.465 4.04554Z" fill="#949494"/>
<path d="M42.3156 6.85742C41.0764 7.69894 39.7689 8.57746 38.3913 9.49471C39.0092 9.80017 39.5013 10.1839 39.5486 10.6796C39.6364 11.6106 37.8012 12.0606 36.1425 11.867C35.8107 11.8283 35.494 11.7789 35.1834 11.6601C34.3573 11.3444 34.0334 11.0475 33.7367 10.837C32.7398 11.2204 33.3349 12.8298 32.8377 13.1637V14.5C33.1669 13.8417 33.887 13.2523 34.4458 13.2222C34.6864 13.2093 35.522 13.9966 38.9661 13.803C40.6375 13.7092 43.8663 11.8928 43.8157 9.80189C43.7853 8.56628 43.1522 7.60257 42.3156 6.85742ZM32.8369 10.0858L32.8377 13.1637C33.1424 12.9563 33.4421 11.0358 33.7367 10.837C33.2733 10.5083 32.9449 10.2011 32.8369 10.0858ZM42.3156 6.85742C41.5797 6.3094 40.4923 5.63988 40.1808 5.49016C38.5601 4.71575 36.8634 4.57378 36.5088 3.52833C36.259 2.79092 36.9647 2.10858 38.6867 2.13439C40.4087 2.16021 42.0041 3.20566 42.4347 3.57996V0.25C42.308 0.379068 41.7526 1.02871 41.2444 0.921156C40.2695 0.714647 38.6107 0.445324 36.7114 0.45651C34.5336 0.469417 32.6596 2.18516 32.5963 4.35436C32.5076 7.38746 34.8881 8.21349 36.2303 8.69104C36.3687 8.74009 38.2199 9.43878 38.3913 9.49471C39.6786 8.64114 40.1213 8.63865 40.7173 8.28844C41.1174 8.05354 41.7011 7.26958 42.3156 6.85742Z" fill="#949494"/>
</g>
<defs>
<clipPath id="clip0_1182_2028">
<rect width="59.4356" height="14.25" fill="white" transform="translate(0.296875 0.25)"/>
</clipPath>
</defs>
</svg>
