<svg width="77" height="15" viewBox="0 0 77 15" fill="none" xmlns="http://www.w3.org/2000/svg">
<g clip-path="url(#clip0_1182_2026)">
<path d="M21.216 0.956721C21.0187 1.34852 21.0187 1.72726 21.0187 2.11906V7.01657C21.0187 7.01657 23.6633 3.6079 24.2686 2.79818C24.7291 2.19742 25.2948 1.34852 25.2948 0.956721H33.9261C33.334 1.34852 32.6761 2.05376 32.1367 2.70676C31.663 3.2814 28.9789 6.53335 28.9789 6.53335C28.9789 6.53335 32.9656 12.554 33.4787 13.3246C33.7682 13.7425 34.084 14.1343 34.4524 14.4869H24.5185C24.5185 14.0951 24.137 13.2984 23.7159 12.6716C23.2949 12.0447 21.0187 8.60989 21.0187 8.60989V13.3246C21.0187 13.7164 21.0187 14.0951 21.216 14.4869H12.9401C13.1374 14.0951 13.1374 13.7164 13.1374 13.3246V2.11906C13.1374 1.72726 13.1374 1.34852 12.9401 0.956721H21.216ZM51.8596 0.956721H35.8865C36.0839 1.34852 36.0839 1.72726 36.0839 2.11906V13.3246C36.0839 13.7164 36.0839 14.0951 35.8865 14.4869H51.8596V10.7387C51.4648 10.9346 51.0833 10.9346 50.6885 10.9346H43.9651V9.15841H50.4254V6.29827H43.9651V4.50905H50.6885C51.0833 4.50905 51.4648 4.50905 51.8596 4.69189V0.956721ZM73.9902 13.3246C74.1218 13.7555 74.3455 14.1473 74.6349 14.4869H65.9774C66.0169 14.0951 65.8721 13.7164 65.7143 13.3246C65.7143 13.3246 65.5827 13.0111 65.3985 12.554L65.3195 12.3581H60.3329L60.254 12.5671C60.254 12.5671 60.1092 12.9458 59.9776 13.3376C59.8461 13.7294 59.7013 14.1082 59.754 14.5H52.9253C53.2016 14.1604 53.4121 13.7686 53.5437 13.3376L57.6356 2.13212C57.7804 1.74032 57.9251 1.36158 57.8725 0.96978H69.4115C69.3062 1.36158 69.5167 1.74032 69.6615 2.13212C70.0036 2.98102 73.7008 12.5671 73.9902 13.3246ZM64.2275 9.49798L63.017 6.36357C62.9117 6.07625 62.8196 5.77587 62.7539 5.47549C62.7012 5.77587 62.6223 6.07625 62.517 6.36357C62.4776 6.49417 61.9644 7.86547 61.3723 9.49798H64.2275ZM8.82181 2.11906C8.82181 1.72726 8.82181 1.34852 9.01917 0.956721H0.0195312C0.216892 1.34852 0.216892 1.72726 0.216892 2.11906V13.3246C0.216892 13.7164 0.216892 14.0951 0.0195312 14.4869H9.01917C8.82181 14.0951 8.82181 13.7164 8.82181 13.3246V2.11906ZM71.2272 2.02764C71.2009 3.00714 71.9772 3.82993 72.9771 3.85605C73.9639 3.88217 74.7928 3.11162 74.8192 2.11906C74.8192 2.09294 74.8192 2.05376 74.8192 2.02764C74.8323 1.0612 74.0692 0.264538 73.0955 0.251478C73.0692 0.251478 73.0561 0.251478 73.0298 0.251478C72.0693 0.212298 71.2667 0.956719 71.2404 1.9101C71.214 1.94928 71.214 1.98846 71.2272 2.02764ZM74.4508 2.02764C74.4771 2.81124 73.8455 3.4773 73.0561 3.49036C72.2666 3.51648 71.5956 2.8896 71.5824 2.106C71.5824 2.07988 71.5824 2.05376 71.5824 2.01458C71.5561 1.2571 72.1482 0.61716 72.9113 0.59104C72.9508 0.59104 72.9771 0.59104 73.0166 0.59104C73.7929 0.57798 74.4376 1.1918 74.4508 1.96234C74.4508 1.98846 74.4508 2.01458 74.4508 2.02764ZM73.8981 3.09856H73.5429L73.1219 2.34108H72.6613V3.09856H72.3456V0.956721H73.1482C73.5297 0.969781 73.8192 1.27016 73.8192 1.6489C73.8192 1.9101 73.6745 2.14518 73.4376 2.27578L73.8981 3.09856ZM73.0955 2.02764C73.3061 2.0407 73.4903 1.88398 73.4903 1.67502C73.4903 1.46606 73.3455 1.28322 73.135 1.28322C73.1219 1.28322 73.1087 1.28322 73.0955 1.28322H72.6613V2.0407H73.0955" fill="#949494"/>
</g>
<defs>
<clipPath id="clip0_1182_2026">
<rect width="75.9872" height="14.25" fill="white" transform="translate(0.0195312 0.25)"/>
</clipPath>
</defs>
</svg>
