<svg width="28" height="36" viewBox="0 0 28 36" fill="none" xmlns="http://www.w3.org/2000/svg">
<g clip-path="url(#clip0_1182_2036)">
<path d="M0.144531 16.7727H7.36149V24.25H0.144531V16.7727Z" fill="#949494"/>
<path d="M16.6937 28.4642C16.6937 30.7372 17.0179 32.2111 17.6599 32.8909C18.2073 33.47 19.1351 33.825 20.4378 33.9614C20.8242 33.9957 21.4832 34.0107 22.4149 34.0107V35.9999H5.70977V34.0107C7.04996 34.0107 8.04339 33.9425 8.68111 33.8114C9.97572 33.5285 10.7924 32.751 11.1285 31.4733C11.3001 30.8098 11.3913 29.8079 11.3913 28.4646V2.44177C8.55416 2.5258 6.33812 3.49555 4.73679 5.35231C3.2164 7.12723 2.28986 9.84902 1.95502 13.5141L0.144531 13.1947L0.481922 0.75H27.644L27.9814 13.1947L26.1747 13.5141C25.8373 9.84902 24.9053 7.12723 23.3785 5.35231C21.7686 3.49511 19.5428 2.5258 16.695 2.44177V28.4642H16.6937Z" fill="#949494"/>
<path d="M20.7656 16.7725H27.9826V24.2497H20.7656V16.7725Z" fill="#949494"/>
</g>
<defs>
<clipPath id="clip0_1182_2036">
<rect width="27.8369" height="35.25" fill="white" transform="translate(0.144531 0.75)"/>
</clipPath>
</defs>
</svg>
