<svg width="83" height="18" viewBox="0 0 83 18" fill="none" xmlns="http://www.w3.org/2000/svg">
<g clip-path="url(#clip0_1182_2033)">
<path d="M21.3753 9.27534C21.3753 8.25934 20.5724 7.42003 19.5242 7.42003C18.4983 7.42003 17.6731 8.25934 17.6731 9.27534C17.6731 10.2913 18.476 11.1086 19.5242 11.1086C20.5724 11.1086 21.3753 10.2913 21.3753 9.27534ZM24.5868 9.29743C24.5868 11.9258 22.3343 14.024 19.5465 14.024C16.7364 14.024 14.5061 11.9258 14.5061 9.29743C14.5061 6.64699 16.7587 4.52663 19.5465 4.52663C22.3343 4.50455 24.5868 6.64699 24.5868 9.29743ZM34.6452 7.37586C34.6452 5.6089 33.3963 4.06281 31.5452 4.06281H28.9804V10.7552H31.5452C33.3963 10.7552 34.6452 9.14282 34.6452 7.37586ZM38.1021 7.37586C38.1021 11.1527 35.4035 13.7369 31.6121 13.7369H26.1257C25.8581 13.7369 25.6573 13.5381 25.6573 13.2952V1.50071C25.6573 1.25776 25.8581 1.05897 26.1257 1.05897H31.6121C35.4258 1.08106 38.1021 3.59898 38.1021 7.37586ZM43.4769 11.1086C44.5029 11.1086 45.328 10.2693 45.328 9.25325C45.328 8.23725 44.5252 7.39795 43.4769 7.39795C42.451 7.39795 41.6258 8.23725 41.6258 9.25325C41.6258 10.2913 42.451 11.1086 43.4769 11.1086ZM42.9863 4.50455C44.0791 4.50455 44.9489 4.90211 45.328 5.45429V5.18924C45.328 4.94629 45.5288 4.76959 45.7518 4.76959H48.0712C48.3166 4.76959 48.495 4.94629 48.495 5.18924V13.3173C48.495 13.5602 48.3166 13.7369 48.0712 13.7369H45.7741C45.5288 13.7369 45.3503 13.5602 45.3503 13.3173V13.0522C44.9712 13.6044 44.0791 14.002 42.9863 14.002C40.6668 14.002 38.4366 12.1687 38.4366 9.23117C38.4366 6.2936 40.6668 4.50455 42.9863 4.50455ZM53.9591 11.1086C54.985 11.1086 55.8102 10.2693 55.8102 9.25325C55.8102 8.23725 55.0073 7.39795 53.9591 7.39795C52.9332 7.39795 52.108 8.23725 52.108 9.25325C52.108 10.2913 52.9332 11.1086 53.9591 11.1086ZM53.4015 4.50455C54.5166 4.50455 55.3864 4.9242 55.7879 5.41011V1.50071C55.7879 1.25776 55.9886 1.08106 56.2116 1.08106H58.5534C58.7987 1.08106 58.9771 1.25776 58.9771 1.50071V13.3394C58.9771 13.5823 58.7987 13.759 58.5534 13.759H56.2562C56.0109 13.759 55.8325 13.5823 55.8325 13.3394V13.0743C55.3641 13.6265 54.5612 14.024 53.4684 14.024C51.149 14.024 48.9187 12.1908 48.9187 9.25325C48.9187 6.31568 51.1267 4.50455 53.4015 4.50455ZM64.4412 11.1086C65.4671 11.1086 66.2923 10.2693 66.2923 9.25325C66.2923 8.23725 65.4894 7.39795 64.4412 7.39795C63.4153 7.39795 62.5901 8.23725 62.5901 9.25325C62.6124 10.2913 63.4153 11.1086 64.4412 11.1086ZM63.9059 4.50455C65.0211 4.50455 65.8909 4.9242 66.2923 5.41011V1.50071C66.2923 1.25776 66.493 1.08106 66.716 1.08106H69.0355C69.2808 1.08106 69.4592 1.25776 69.4592 1.50071V13.3394C69.4592 13.5823 69.2808 13.759 69.0355 13.759H66.7383C66.493 13.759 66.3146 13.5823 66.3146 13.3394V13.0743C65.8462 13.6265 65.0434 14.024 63.9505 14.024C61.6311 14.024 59.4008 12.1908 59.4008 9.25325C59.4008 6.31568 61.6088 4.50455 63.9059 4.50455ZM77.1759 15.0401C76.596 16.9395 75.2579 17.9997 73.1614 17.9997C72.024 17.9997 70.9089 17.6242 70.1952 17.0058C70.0837 16.8954 70.0168 16.7628 70.0168 16.6303C70.0168 16.5199 70.0614 16.3874 70.1729 16.2548L71.0427 14.9517C71.1765 14.775 71.3772 14.7529 71.4218 14.7529C71.6226 14.7529 71.7118 14.7971 71.8902 14.9296C72.1578 15.1063 72.537 15.3272 72.9607 15.3272C73.3175 15.3272 73.7859 15.1726 73.9643 14.6425L74.2542 13.7369H72.8269C72.537 13.7369 72.3585 13.5381 72.2693 13.2952L69.9276 5.49846C69.883 5.29968 69.8607 5.18924 69.8607 5.12298C69.8607 4.94629 69.9945 4.79168 70.2398 4.79168H73.0053C73.2506 4.79168 73.3845 5.01255 73.4514 5.23342L74.9902 10.8435H75.1017L76.3284 5.23342C76.373 5.01255 76.5291 4.79168 76.7744 4.79168H79.5845C79.8521 4.79168 79.9637 4.94629 79.9637 5.12298C79.9637 5.18924 79.9414 5.29968 79.8968 5.49846L77.1759 15.0401ZM11.2054 11.992C10.0903 13.516 8.26147 14.024 6.63339 14.024C2.88659 14.024 0.121094 11.2632 0.121094 7.42003C0.143396 3.7315 3.13192 0.79393 7.03484 0.79393C9.93415 0.79393 12.2536 2.00872 13.3018 4.32785C13.4356 4.5929 13.5248 5.03464 12.7442 5.16716L10.6924 5.52055C10.2241 5.6089 9.95645 5.29968 9.86724 5.16716C9.26507 4.34994 8.28377 3.79776 7.10174 3.79776C5.04992 3.79776 3.60027 5.34385 3.60027 7.39795C3.60027 9.67291 5.25064 10.9981 7.05714 10.9981C8.26147 10.9981 9.24277 10.5564 9.88954 9.71708H8.08305C7.81542 9.71708 7.6147 9.5183 7.6147 9.27534V7.57464C7.6147 7.33168 7.81542 7.1329 8.08305 7.1329H13.5917C13.8594 7.1329 14.0601 7.33168 14.0601 7.57464V13.2952C14.0601 13.5381 13.8594 13.7369 13.5917 13.7369H11.6737C11.4061 13.7369 11.2054 13.5381 11.2054 13.2952V11.992ZM80.3651 0.749756C79.3838 0.749756 78.5809 1.54489 78.5809 2.51672C78.5809 3.48854 79.3838 4.28368 80.3651 4.28368C81.3464 4.28368 82.1493 3.48854 82.1493 2.51672C82.1493 1.54489 81.3464 0.749756 80.3651 0.749756ZM80.3651 3.93029C79.5845 3.93029 78.9377 3.28976 78.9377 2.51672C78.9377 1.74367 79.5845 1.10315 80.3651 1.10315C81.1457 1.10315 81.7925 1.74367 81.7925 2.51672C81.7925 3.28976 81.1457 3.93029 80.3651 3.93029Z" fill="#949494"/>
<path d="M80.7217 2.18556C80.7217 2.09721 80.6994 2.03095 80.6325 2.00886C80.5879 1.96469 80.4987 1.92052 80.4318 1.92052H80.1196V2.42852H80.4318C80.521 2.42852 80.5879 2.40643 80.6325 2.34017C80.6771 2.29599 80.7217 2.25182 80.7217 2.18556ZM80.0304 3.48869H79.6958C79.6735 3.48869 79.6735 3.48869 79.6512 3.46661C79.6512 3.44452 79.6289 3.44452 79.6289 3.42243V1.58921C79.6289 1.56712 79.6289 1.56712 79.6512 1.54504C79.6735 1.54504 79.6735 1.52295 79.6958 1.52295H80.4318C80.6771 1.52295 80.8556 1.56712 80.9894 1.69965C81.1232 1.83217 81.1901 1.98678 81.1901 2.16347C81.1901 2.29599 81.1678 2.40643 81.0786 2.49478C80.9894 2.60521 80.9225 2.67147 80.811 2.73773L81.2347 3.37826C81.257 3.40034 81.257 3.42243 81.2347 3.46661C81.2347 3.48869 81.2124 3.48869 81.1901 3.48869H80.8556C80.8333 3.48869 80.811 3.48869 80.7664 3.46661C80.7441 3.46661 80.744 3.44452 80.7217 3.42243L80.3649 2.82608H80.0973V3.40034C80.0973 3.42243 80.0973 3.42243 80.075 3.44452C80.0527 3.46661 80.0527 3.48869 80.0304 3.48869Z" fill="#949494"/>
</g>
<defs>
<clipPath id="clip0_1182_2033">
<rect width="82.0061" height="17.25" fill="white" transform="translate(0.121094 0.749756)"/>
</clipPath>
</defs>
</svg>
