<svg width="44" height="36" viewBox="0 0 44 36" fill="none" xmlns="http://www.w3.org/2000/svg">
<g clip-path="url(#clip0_1182_2001)">
<path d="M43.135 22.533C43.1017 22.0044 43.0286 21.4717 42.9077 20.9556C42.5741 19.5238 41.9983 18.1898 41.2496 16.9245C40.4237 15.5322 39.456 14.2481 38.3381 13.0787C37.7563 12.4709 37.1494 11.8841 36.5486 11.2931C36.3734 11.1225 36.1899 10.958 35.998 10.8081C35.1742 10.1609 34.3754 9.4784 33.5078 8.89761C32.0228 7.90077 30.5337 6.89567 28.9715 6.02992C27.499 5.21412 25.9557 4.50868 24.3936 3.87593C22.8167 3.23694 21.1901 2.71053 19.5632 2.20687C18.5121 1.88224 17.4255 1.66153 16.3472 1.439C15.4796 1.25997 14.6057 1.1186 13.7276 1.01026C12.7619 0.889628 11.7879 0.787526 10.8139 0.760541C9.75233 0.729326 8.68874 0.773027 7.62697 0.818741C7.33493 0.831226 7.0429 0.845725 6.75107 0.870696C6.39445 0.901911 6.03985 0.94561 5.69151 1.01428C4.61117 1.22654 3.53708 1.4825 2.47551 1.77591C2.14816 1.86754 1.13664 2.18794 0.633903 3.10786C0.525525 3.30562 0.362859 3.66569 0.2898 4.08597C0.158415 4.84982 0.679716 5.58446 1.44946 5.68435C1.45571 5.68435 1.45995 5.68435 1.46399 5.68636C2.09811 5.76128 2.7403 5.79048 3.38067 5.80921C3.59965 5.81545 3.84163 5.77598 4.03558 5.67811C4.19825 5.59695 4.35668 5.42014 4.41298 5.24936C4.44003 5.16619 4.25455 4.95595 4.12317 4.88929C3.75606 4.71026 3.34515 4.61883 2.96351 4.47303C2.84666 4.42933 2.72577 4.40637 2.60266 4.37939C2.54837 4.3669 2.51083 4.32119 2.50679 4.265V4.25876C2.50679 4.21506 2.5298 4.17337 2.56936 4.15062C2.67572 4.0902 2.78006 4.02999 2.89267 4.01126C3.7603 3.86767 4.6259 3.67415 5.49756 3.57829C5.7123 3.55332 5.92724 3.53459 6.14197 3.52412C7.74786 3.4492 9.36221 3.43873 10.9639 3.68643C11.8773 3.828 12.8075 3.87795 13.7044 4.08175C15.3666 4.46055 17.0267 4.86432 18.6599 5.35529C19.9384 5.74034 21.1919 6.21278 22.4077 6.76416C24.1304 7.54674 25.8469 8.35831 27.4863 9.29897C28.9192 10.121 30.2726 11.0929 31.6096 12.071C32.5711 12.7744 33.4743 13.5653 34.3522 14.3748C34.9425 14.918 35.445 15.559 35.9768 16.1645C36.9446 17.2675 37.7038 18.5016 38.2501 19.8605C38.8257 21.2903 39.0532 22.7699 38.7381 24.2911C38.4023 25.9102 37.5369 27.2212 36.2459 28.241C35.2343 29.0381 34.1019 29.6459 32.8734 30.0287C31.8139 30.3596 30.7295 30.624 29.6407 30.8465C28.7585 31.0276 27.8574 31.1794 26.9607 31.2086C25.8533 31.2461 24.7355 31.1941 23.6321 31.09C22.531 30.9859 21.4444 30.7571 20.3473 30.6155C20.0783 30.5801 20.0512 30.474 20.0552 30.2597C20.0823 28.8548 20.1011 27.4502 20.1198 26.0476C20.1428 24.414 20.1616 22.7801 20.1844 21.1465C20.1864 21.0883 20.2052 21.0299 20.2177 20.953C20.7788 20.9987 21.3231 21.0424 21.8696 21.0903C22.6079 21.1507 23.3546 21.1735 24.0886 21.2881C25.2085 21.4609 26.3264 21.6669 27.434 21.9146C28.2578 22.0999 29.0816 22.3286 29.7824 22.8428C30.3184 23.2361 30.235 23.6044 29.7929 23.9602C29.6282 24.0913 29.428 24.1787 29.2381 24.2766C28.9107 24.4432 28.5686 24.5845 28.2536 24.772C27.8699 24.9988 27.8614 25.2569 28.2473 25.4525C29.3131 25.9936 30.3767 26.3162 31.5426 25.6355C33.4656 24.5138 33.9536 22.1351 32.3289 20.4703C31.4863 19.6088 30.4581 19.0529 29.3361 18.6431C28.1389 18.2041 26.8897 18.0041 25.6467 17.7587C24.0408 17.4445 22.4264 17.2695 20.7913 17.2717C20.7017 17.2717 20.6098 17.2612 20.5265 17.2572C20.4952 16.7515 20.4619 16.2666 20.4347 15.7837C20.4096 15.2968 20.4139 14.8098 20.3658 14.3249C20.3013 13.6422 20.2157 12.9597 20.1156 12.2812C19.9947 11.4654 19.4899 10.8452 18.9894 10.2396C18.6286 9.80464 18.1448 9.77765 17.8611 10.4062C17.7902 10.5643 17.7129 10.7225 17.6754 10.8891C17.4584 11.811 17.2187 12.7309 17.056 13.6611C16.9038 14.5393 16.837 15.4321 16.7327 16.3188C16.6909 16.6746 16.6596 17.0327 16.6013 17.3863C16.5888 17.4592 16.4929 17.5631 16.4219 17.5778C15.7294 17.7131 15.0307 17.8213 14.3383 17.9586C12.3548 18.3582 10.4403 18.9659 8.64656 19.9066C7.9186 20.2874 7.21788 20.7204 6.71938 21.4091C6.12502 22.2269 5.9894 23.0949 6.44612 24.0064C6.95289 25.0157 7.70164 25.8565 8.45665 26.6827C8.92588 27.1946 9.42861 27.6733 9.95839 28.1228C10.7427 28.7868 11.5267 29.4652 12.3798 30.0333C13.4769 30.7617 14.6428 31.3882 15.771 32.0665C15.8649 32.1227 15.9567 32.2558 15.9732 32.3641C16.0733 32.9802 16.1254 33.6045 16.2402 34.2163C16.3403 34.7449 16.5488 35.2443 16.9702 35.6024C17.548 36.0915 18.2237 36.0768 18.8869 35.8396C19.2893 35.696 19.744 35.5524 19.8441 35.0343C19.9067 34.7117 19.9818 34.387 19.9838 34.0644C19.9858 33.7605 20.0797 33.7168 20.3467 33.794C21.9964 34.2726 23.69 34.5244 25.396 34.6577C26.2824 34.7284 27.1771 34.6702 28.0677 34.6722C29.3838 34.6764 30.6748 34.4911 31.9616 34.2372C33.603 33.9126 35.1839 33.4047 36.6919 32.6868C37.7514 32.1811 38.7274 31.5483 39.6221 30.7784C40.5002 30.0231 41.2427 29.1613 41.7911 28.152C42.7386 26.404 43.2601 24.5394 43.135 22.533ZM16.3638 23.3406C16.3575 23.4342 16.3617 23.5279 16.3575 23.6215C16.3157 24.531 16.2844 25.4404 16.2281 26.3498C16.1823 27.099 16.1093 27.8483 16.0425 28.5975C16.0217 28.8409 15.9841 29.0866 15.9528 29.3508C14.1801 28.6537 12.5136 27.8149 10.9786 26.7266C9.77312 25.8754 8.67603 24.9057 7.73332 23.7715C7.27237 23.22 7.42252 22.706 8.02314 22.4541C8.8282 22.115 9.67705 21.8673 10.5279 21.6675C11.4018 21.4615 12.3007 21.3449 13.1934 21.2242C13.7439 21.1473 14.303 21.1306 14.8598 21.0911C15.3916 21.0517 15.9234 21.0142 16.4887 20.9725C16.4473 21.7756 16.4035 22.558 16.3638 23.3406Z" fill="#949494"/>
</g>
<defs>
<clipPath id="clip0_1182_2001">
<rect width="42.8839" height="35.25" fill="white" transform="translate(0.269531 0.75)"/>
</clipPath>
</defs>
</svg>
