<svg width="36" height="36" viewBox="0 0 36 36" fill="none" xmlns="http://www.w3.org/2000/svg">
<g clip-path="url(#clip0_1182_2017)">
<path d="M28.7758 12.5396C27.9103 12.7771 19.9937 19.0273 19.4718 20.5609C19.3568 21.0905 19.4834 26.2273 19.5984 26.9975C20.1203 27.1155 23.8861 27.0128 24.5772 27.1304L24.4943 28.7183C23.8175 28.6648 19.0321 28.6773 16.3018 28.6773C14.914 28.6773 10.4535 28.8335 9.08354 28.7929L9.34251 27.2816C10.0943 27.2249 13.2049 27.4226 13.8866 26.6827C14.2257 26.3148 14.1191 21.4331 14.004 20.6078C13.716 19.7249 6.77826 10.8748 4.96559 9.42481H0.292969V7.19995H16.0515V7.35345C16.0653 7.35345 16.0916 7.35596 16.105 7.35873L16.0515 7.7347V9.42473H11.2995C13.4175 12.5779 16.4542 16.3847 17.7493 18.214L24.0965 12.3579H20.3237L19.7923 10.1355H33.6123L33.5102 10.2939C33.5209 10.2939 33.5439 10.2964 33.559 10.2964L32.5717 11.7542C32.5629 11.7542 32.548 11.7567 32.5402 11.7591L32.1419 12.3579H29.5927C29.2627 12.432 28.9723 12.498 28.7758 12.5396ZM33.2852 26.4734L32.065 26.4121L30.7037 26.243L30.7153 28.6188L31.7889 28.713L32.946 28.8L33.2852 26.4734ZM35.6533 15.1168C35.2417 15.102 31.498 14.7412 31.0115 14.6431L31.0691 24.68L33.1877 24.8543L35.6533 15.1168Z" fill="#949494"/>
</g>
<defs>
<clipPath id="clip0_1182_2017">
<rect width="35.3604" height="36" fill="white" transform="matrix(1 0 0 -1 0.292969 36)"/>
</clipPath>
</defs>
</svg>
