<svg width="37" height="36" viewBox="0 0 37 36" fill="none" xmlns="http://www.w3.org/2000/svg">
<g clip-path="url(#clip0_1182_1999)">
<path d="M8.62957 22.052L7.39873 26.6325L2.90002 26.7274C1.55556 24.2415 0.792969 21.3974 0.792969 18.375C0.792969 15.4523 1.50598 12.6962 2.76983 10.2694L6.77591 11.0014L8.53039 14.97C8.16319 16.0372 7.96304 17.1829 7.96304 18.375C7.96318 19.6687 8.19827 20.9083 8.62957 22.052Z" fill="#949494"/>
<path d="M35.8444 15.0824C36.0474 16.1486 36.1533 17.2497 36.1533 18.375C36.1533 19.6368 36.0202 20.8677 35.7667 22.0549C34.906 26.0951 32.6571 29.623 29.5418 32.1196L29.5408 32.1186L24.4961 31.862L23.7822 27.4189C25.8494 26.2104 27.4649 24.3191 28.3159 22.0549H18.8618V15.0824H35.8444Z" fill="#949494"/>
<path d="M29.5408 32.1186L29.5418 32.1196C26.5119 34.5473 22.6629 35.9999 18.4731 35.9999C11.7401 35.9999 5.88624 32.2483 2.90002 26.7274L8.62957 22.052C10.1226 26.0243 13.9666 28.8522 18.4731 28.8522C20.4101 28.8522 22.225 28.3302 23.7822 27.4189L29.5408 32.1186Z" fill="#949494"/>
<path d="M29.7584 4.8076L24.0308 9.48206C22.4192 8.47785 20.5141 7.89775 18.4732 7.89775C13.8647 7.89775 9.94868 10.8552 8.53039 14.97L2.77082 10.2694C5.71333 4.61393 11.6401 0.75 18.4732 0.75C22.763 0.75 26.6964 2.27332 29.7584 4.8076Z" fill="#949494"/>
</g>
<defs>
<clipPath id="clip0_1182_1999">
<rect width="35.3604" height="35.25" fill="white" transform="translate(0.792969 0.75)"/>
</clipPath>
</defs>
</svg>
